<svg width="35" height="28" viewBox="0 0 35 28" version="1.1" xmlns="http://www.w3.org/2000/svg" xmlns:xlink="http://www.w3.org/1999/xlink">
<title>twitter</title>
<desc>Created using Figma</desc>
<g id="Canvas" transform="translate(31 -202)">
<g id="twitter">
<g id="Vector">
<use xlink:href="#path0_fill" transform="translate(-31 202)" fill="#FFFFFF"/>
</g>
</g>
</g>
<defs>
<path id="path0_fill" d="M 34.172 3.28759C 32.8924 3.85418 31.5351 4.22615 30.1454 4.39115C 31.5908 3.5226 32.7027 2.15002 33.2259 0.512114C 31.8498 1.32872 30.3442 1.90405 28.7741 2.21324C 28.1186 1.51319 27.3261 0.955458 26.4459 0.574712C 25.5657 0.193966 24.6165 -0.00165417 23.6575 1.05361e-05C 19.7874 1.05361e-05 16.6463 3.13803 16.6463 7.009C 16.6463 7.55904 16.7082 8.09512 16.8294 8.60701C 11.002 8.31422 5.83741 5.5248 2.37891 1.28321C 1.77503 2.31723 1.43058 3.5226 1.43058 4.80755C 1.43058 7.23835 2.66778 9.38421 4.54854 10.6415C 3.43501 10.6073 2.3459 10.3067 1.37258 9.76464L 1.37258 9.85402C 1.37258 13.2493 3.78943 16.0825 6.99504 16.7278C 5.96263 17.0074 4.88015 17.0484 3.82955 16.8477C 4.72208 19.633 7.31202 21.6592 10.3785 21.7181C 7.97957 23.5951 4.95709 24.7179 1.67169 24.7179C 1.11304 24.7172 0.554891 24.6845 -3.82554e-08 24.6198C 3.10227 26.608 6.78815 27.77 10.747 27.77C 23.6422 27.77 30.6926 17.0867 30.6926 7.82218C 30.6926 7.51914 30.6926 7.21611 30.6708 6.91526C 32.0427 5.92269 33.2274 4.6944 34.1699 3.28759L 34.172 3.28759Z"/>
</defs>
</svg>
