<svg width="46" height="28" viewBox="0 0 46 28" version="1.1" xmlns="http://www.w3.org/2000/svg" xmlns:xlink="http://www.w3.org/1999/xlink">
<title>meetup</title>
<desc>Created using Figma</desc>
<g id="Canvas" transform="translate(-46 -202)">
<g id="meetup">
<g id="Vector">
<use xlink:href="#path0_fill" transform="translate(46 202)" fill="#FFFFFF"/>
</g>
</g>
</g>
<defs>
<path id="path0_fill" d="M 45.7596 25.4448C 45.1794 22.7354 38.3665 24.8218 37.9428 21.8542C 37.3455 17.6476 45.8626 8.58205 45.1889 5.056C 44.5916 1.89196 41.6756 1.22548 39.1489 1.18899C 36.6985 1.16093 36.0516 1.44436 35.2214 1.79935C 34.7386 2.00421 34.0535 2.40971 33.0993 1.74183C 32.4619 1.29563 32.0363 0.989751 31.3722 0.592667C 31.0249 0.393424 30.4829 0.138055 29.5688 0.0384335C 28.6604 -0.0611883 27.4734 0.0384335 26.7215 0.272755C 25.9676 0.514092 25.3818 0.926611 24.7635 1.32369C 24.147 1.72078 22.5745 3.00464 21.1165 2.52898C 20.4772 2.32552 18.3341 1.53837 16.7807 1.04868C 13.7978 0.0987679 9.4868 1.63799 7.93337 3.66691C 5.61849 6.68222 1.06316 18.5442 0.36851 20.1045C -1.17538 23.6151 2.33797 26.4747 7.06505 26.3119C 9.07267 26.2404 10.4047 25.7086 11.6681 24.0136C 12.4009 23.0412 19.2616 9.8603 19.7749 9.22047C 20.1509 8.76727 21.3856 8.16392 22.4276 8.55399C 23.4791 8.95107 23.6909 9.7733 23.5364 10.5478C 23.2768 11.8036 18.4429 19.8491 18.2482 20.7556C 17.9391 22.3032 18.9333 23.1605 21.1242 23.2447C 22.6203 23.3022 24.1146 22.9122 25.2921 21.2663C 25.9581 20.3515 33.5917 9.10682 34.2653 8.35475C 35.0096 7.53252 35.6069 7.26171 36.3703 7.29118C 36.96 7.31223 37.8951 7.42588 37.6642 8.71675C 37.4313 9.98658 31.2844 18.2299 30.6489 20.2518C 29.7787 22.9557 31.7978 25.6875 35.1165 26.8858C 37.2386 27.6519 46.5096 28.9568 45.7596 25.4448Z"/>
</defs>
</svg>
