<svg width="442" height="112" viewBox="0 0 442 112" version="1.1" xmlns="http://www.w3.org/2000/svg" xmlns:xlink="http://www.w3.org/1999/xlink">
<title>logotipo</title>
<desc>Created using Figma</desc>
<g id="Canvas" transform="translate(221 229)">
<g id="logotipo">
<g id="Camada 2">
<g id="Camada 1">
<g id="Vector">
<use xlink:href="#path0_fill" transform="translate(-221 -209.985)" fill="#EB70CA"/>
</g>
<g id="Vector">
<use xlink:href="#path1_fill" transform="translate(-186.655 -209.985)" fill="#EB70CA"/>
</g>
<g id="Vector">
<use xlink:href="#path2_fill" transform="translate(-152.31 -192.871)" fill="#EB70CA"/>
</g>
<g id="Vector">
<use xlink:href="#path3_fill" transform="translate(-100.792 -201.428)" fill="#EB70CA"/>
</g>
<g id="Vector">
<use xlink:href="#path4_fill" transform="translate(-49.2739 -192.871)" fill="#EB70CA"/>
</g>
<g id="Vector">
<use xlink:href="#path5_fill" transform="translate(2.33548 -229)" fill="#77F375"/>
</g>
<g id="Vector">
<use xlink:href="#path6_fill" transform="translate(58.6235 -198.767)" fill="#77F375"/>
</g>
<g id="Vector">
<use xlink:href="#path7_fill" transform="translate(118.728 -223.295)" fill="#77F375"/>
</g>
<g id="Vector">
<use xlink:href="#path8_fill" transform="translate(172.726 -216.26)" fill="#77F375"/>
</g>
<g id="Vector">
<use xlink:href="#path9_fill" transform="translate(178.931 -130.311)" fill="#FFFFFF"/>
</g>
<g id="Vector">
<use xlink:href="#path10_fill" transform="translate(190.7 -130.311)" fill="#FFFFFF"/>
</g>
<g id="Vector">
<use xlink:href="#path11_fill" transform="translate(202.454 -130.311)" fill="#FFFFFF"/>
</g>
<g id="Vector">
<use xlink:href="#path12_fill" transform="translate(210.391 -130.311)" fill="#FFFFFF"/>
</g>
</g>
</g>
</g>
</g>
<defs>
<path id="path0_fill" d="M 0 59.8981L 0 51.3413L 8.5863 51.3413L 8.5863 8.55688L 0 8.55688L 0 0L 17.1726 0L 17.1726 51.3413L 25.7589 51.3413L 25.7589 59.8981L 0 59.8981Z"/>
<path id="path1_fill" d="M 0 59.8981L 0 51.3413L 8.5863 51.3413L 8.5863 25.6706L 0 25.6706L 0 17.1138L 17.1726 17.1138L 17.1726 51.3413L 25.7589 51.3413L 25.7589 59.8981L 0 59.8981ZM 8.5863 8.55688L 8.5863 0L 17.1726 0L 17.1726 8.55688L 8.5863 8.55688Z"/>
<path id="path2_fill" d="M 0 42.7844L 0 0L 8.5863 0L 8.5863 8.55688L 17.1726 8.55688L 17.1726 17.1138L 8.5863 17.1138L 8.5863 42.7844L 0 42.7844ZM 17.1726 8.55688L 17.1726 0L 34.3452 0L 34.3452 8.55688L 17.1726 8.55688ZM 34.3452 42.7844L 34.3452 8.55688L 42.9315 8.55688L 42.9315 42.7844L 34.3452 42.7844Z"/>
<path id="path3_fill" d="M 0 25.6706L 0 8.55688L 8.5863 8.55688L 8.5863 25.6706L 0 25.6706ZM 34.3452 42.7844L 34.3452 34.2275L 8.5863 34.2275L 8.5863 25.6706L 34.3452 25.6706L 34.3452 8.55688L 8.5863 8.55688L 8.5863 0L 42.9315 0L 42.9315 42.7844L 34.3452 42.7844ZM 8.5863 51.3413L 8.5863 42.7844L 34.3452 42.7844L 34.3452 51.3413L 8.5863 51.3413Z"/>
<path id="path4_fill" d="M 0 34.2275L 0 0L 8.5863 0L 8.5863 34.2275L 0 34.2275ZM 8.5863 42.7844L 8.5863 34.2275L 34.3452 34.2275L 34.3452 42.7844L 8.5863 42.7844ZM 34.3452 34.2275L 34.3452 0L 42.9315 0L 42.9315 34.2275L 34.3452 34.2275Z"/>
<path id="path5_fill" d="M -3.72669e-06 65.4126C -3.72669e-06 54.764 8.39549 49.2496 30.1475 48.1087C 29.575 44.6859 26.3313 43.1647 20.9887 43.1647C 16.9818 43.1647 12.9749 44.4958 7.25065 47.1579L 1.52645 36.5093C 8.77711 32.5161 16.2186 30.2343 24.2325 30.2343C 37.7797 30.2343 46.5568 36.8896 46.5568 52.4822L 46.5568 78.9134L 33.2004 78.9134L 32.0555 73.9694L 31.6739 73.9694C 26.9953 77.3922 21.3704 80.0543 15.4553 80.0543C 5.53339 80.0543 -3.72669e-06 73.2088 -3.72669e-06 65.4126ZM 30.1475 63.8913L 30.1475 57.8064C 18.5083 58.1868 15.6461 60.8489 15.6461 64.0815C 15.6461 66.2645 17.3634 67.5042 20.7979 67.5042C 24.6141 67.5042 27.5678 65.7929 30.1475 63.8913ZM 17.3634 17.8744L 32.4371 0L 43.5039 10.8387L 25.3773 25.8608L 17.3634 17.8744Z"/>
<path id="path6_fill" d="M -3.72669e-06 56.4768C -3.72669e-06 52.5748 2.48048 49.6313 7.25065 47.3494L 7.25065 46.9691C 4.57936 45.2578 2.48048 42.7858 2.48048 38.7926C 2.48048 35.56 4.86175 32.1372 8.20469 29.8554L 8.20469 29.4751C 6.18119 28.1565 4.52526 26.3492 3.39099 24.2214C 2.25671 22.0936 1.68094 19.7145 1.71726 17.3053C 1.71726 5.51584 11.7308 0.00140376 22.7976 0.00140376C 25.5441 -0.026374 28.2791 0.358245 30.9107 1.14232L 50.1822 1.14232L 50.1822 12.9318L 41.5959 12.9318C 42.4423 14.4452 42.901 16.1434 42.9315 17.8758C 42.9315 29.0948 34.1544 33.6585 22.7976 33.6585C 20.7776 33.6423 18.7647 33.418 16.791 32.9891C 15.6461 33.8486 15.2645 34.4191 15.2645 35.7501C 15.2645 37.8418 17.3634 38.6024 22.706 38.6024L 30.8115 38.6024C 43.4047 38.6024 50.6554 42.2153 50.6554 50.9624C 50.6554 61.2306 39.3062 68.2663 21.4619 68.2663C 9.63955 68.2663 -3.72669e-06 65.0337 -3.72669e-06 56.4768ZM 35.1084 53.8146C 35.1084 51.3427 32.4371 50.9624 27.667 50.9624L 22.8968 50.9624C 20.4658 51.0571 18.0321 50.8656 15.6461 50.3919C 14.0205 51.5328 13.2572 52.4836 13.2572 53.8146C 13.2572 56.8571 17.6458 58.1882 24.0416 58.1882C 30.4375 58.1882 35.1084 56.4768 35.1084 53.8146ZM 28.621 17.3053C 28.621 12.9318 25.9497 10.8401 22.7976 10.8401C 19.6455 10.8401 17.0734 12.9318 17.0734 17.3053C 17.0734 21.869 19.6531 23.9607 22.7976 23.9607C 25.9421 23.9607 28.621 21.869 28.621 17.3053Z"/>
<path id="path7_fill" d="M 18.1266 38.4109L -3.72669e-06 38.4109L -3.72669e-06 25.6706L 34.536 25.6706L 34.536 73.2088L 18.1266 73.2088L 18.1266 38.4109ZM 15.2645 9.69779C 15.2645 3.99321 19.6531 0 25.7589 0C 31.8647 0 36.2533 3.99321 36.2533 9.69779C 36.2533 15.4024 31.8647 19.2054 25.7589 19.2054C 19.6531 19.2054 15.2645 15.4024 15.2645 9.69779Z"/>
<path id="path8_fill" d="M 14.3105 46.5874L 14.3105 12.7402L -3.72669e-06 12.7402L -3.72669e-06 0L 30.7199 0L 30.7199 47.1579C 30.7199 52.6723 34.536 54.1936 37.8713 54.1936C 40.2205 54.1444 42.5439 53.6942 44.7404 52.8625L 48.2741 64.8421C 43.1223 66.3633 39.6878 67.3141 33.4828 67.3141C 20.7979 67.3141 14.3105 58.9474 14.3105 46.5874Z"/>
<path id="path9_fill" d="M 0 3.80306L 0 1.90153L 1.90807 1.90153L 1.90807 3.80306L 0 3.80306ZM 0 13.3107L 0 11.4092L 1.90807 11.4092L 1.90807 9.50764L 3.81613 9.50764L 3.81613 11.4092L 9.54034 11.4092L 9.54034 13.3107L 0 13.3107ZM 1.90807 1.90153L 1.90807 0L 7.63227 0L 7.63227 1.90153L 1.90807 1.90153ZM 3.81613 9.50764L 3.81613 7.60611L 5.7242 7.60611L 5.7242 9.50764L 3.81613 9.50764ZM 5.7242 7.60611L 5.7242 5.70458L 7.63227 5.70458L 7.63227 7.60611L 5.7242 7.60611ZM 7.63227 5.70458L 7.63227 1.90153L 9.54034 1.90153L 9.54034 5.70458L 7.63227 5.70458Z"/>
<path id="path10_fill" d="M -1.30434e-05 11.4092L -1.30434e-05 1.90153L 1.90805 1.90153L 1.90805 7.60611L 3.81612 7.60611L 3.81612 9.50764L 1.90805 9.50764L 1.90805 11.4092L -1.30434e-05 11.4092ZM 1.90805 1.90153L 1.90805 0L 7.63226 0L 7.63226 1.90153L 1.90805 1.90153ZM 1.90805 13.3107L 1.90805 11.4092L 7.63226 11.4092L 7.63226 13.3107L 1.90805 13.3107ZM 3.81612 7.60611L 3.81612 5.70458L 5.72419 5.70458L 5.72419 7.60611L 3.81612 7.60611ZM 7.63226 11.4092L 7.63226 5.70458L 5.72419 5.70458L 5.72419 3.80306L 7.63226 3.80306L 7.63226 1.90153L 9.54032 1.90153L 9.54032 11.4092L 7.63226 11.4092Z"/>
<path id="path11_fill" d="M 5.59004e-06 13.3107L 5.59004e-06 11.4092L 1.90807 11.4092L 1.90807 3.80306L 5.59004e-06 3.80306L 5.59004e-06 1.90153L 1.90807 1.90153L 1.90807 0L 3.81614 0L 3.81614 11.4092L 5.72421 11.4092L 5.72421 13.3107L 5.59004e-06 13.3107Z"/>
<path id="path12_fill" d="M -2.23602e-05 5.70458L -2.23602e-05 1.90153L 1.90805 1.90153L 1.90805 5.70458L -2.23602e-05 5.70458ZM -2.23602e-05 11.4092L -2.23602e-05 7.60611L 1.90805 7.60611L 1.90805 11.4092L -2.23602e-05 11.4092ZM 1.90805 1.90153L 1.90805 0L 7.63225 0L 7.63225 1.90153L 1.90805 1.90153ZM 1.90805 7.60611L 1.90805 5.70458L 7.63225 5.70458L 7.63225 7.60611L 1.90805 7.60611ZM 1.90805 13.3107L 1.90805 11.4092L 7.63225 11.4092L 7.63225 13.3107L 1.90805 13.3107ZM 7.63225 5.70458L 7.63225 1.90153L 9.54031 1.90153L 9.54031 5.70458L 7.63225 5.70458ZM 7.63225 11.4092L 7.63225 7.60611L 9.54031 7.60611L 9.54031 11.4092L 7.63225 11.4092Z"/>
</defs>
</svg>
